<?xml version="1.0" standalone="no"?>
<!DOCTYPE svg PUBLIC "-//W3C//DTD SVG 20010904//EN"
 "http://www.w3.org/TR/2001/REC-SVG-20010904/DTD/svg10.dtd">
<svg version="1.0" xmlns="http://www.w3.org/2000/svg"
 width="512.000000pt" height="512.000000pt" viewBox="0 0 512.000000 512.000000"
 preserveAspectRatio="xMidYMid meet">
<metadata>
Created by potrace 1.11, written by Peter Selinger 2001-2013
</metadata>
<g transform="translate(0.000000,512.000000) scale(0.100000,-0.100000)"
fill="#000000" stroke="none">
<path d="M1427 4054 c-1 -1 -33 -4 -72 -8 -102 -8 -207 -31 -314 -66 -90 -29
-260 -103 -271 -118 -3 -4 -21 -15 -41 -25 -106 -54 -317 -242 -403 -360 -26
-34 -55 -73 -66 -87 -11 -14 -52 -88 -90 -165 -119 -239 -162 -434 -155 -700
2 -82 6 -163 9 -180 4 -16 13 -65 21 -108 60 -305 256 -624 515 -835 25 -20
54 -45 64 -54 11 -10 25 -18 32 -18 7 0 14 -3 16 -8 8 -18 177 -110 303 -163
33 -14 197 -59 235 -65 19 -3 41 -7 49 -10 26 -9 137 -17 226 -18 134 0 225 9
362 38 47 10 148 40 153 45 3 3 14 7 25 9 29 3 285 132 285 143 0 5 6 9 14 9
7 0 25 11 39 24 14 13 30 26 35 27 34 14 221 192 271 259 14 19 28 37 31 40
14 13 77 110 95 145 11 22 23 42 27 45 20 16 113 253 134 345 31 130 42 232
42 373 -1 145 -24 313 -55 397 -8 22 -15 47 -16 55 -2 8 -8 32 -15 52 -13 36
-12 38 20 74 111 124 224 203 378 264 58 23 76 27 191 44 485 71 948 -279
1015 -769 47 -342 -111 -693 -396 -879 -112 -73 -189 -103 -365 -142 -45 -10
-211 -10 -265 0 -135 25 -244 65 -347 127 l-62 38 -52 -97 c-28 -53 -54 -99
-58 -102 -4 -3 -18 -23 -31 -45 -13 -22 -27 -42 -30 -45 -3 -3 -19 -23 -36
-45 -16 -21 -36 -47 -44 -56 -68 -74 -80 -88 -80 -92 0 -10 130 -89 218 -132
148 -73 327 -125 485 -142 119 -12 352 -6 417 12 8 2 31 6 50 9 19 4 67 15
105 26 98 29 81 23 185 66 157 64 323 176 456 309 99 98 197 218 187 229 -3 3
-1 6 4 6 12 0 83 120 126 212 37 81 90 241 104 318 32 179 36 395 8 545 -17
93 -22 120 -25 120 -1 0 -3 11 -6 25 -16 94 -119 319 -205 445 -277 409 -729
654 -1214 658 -146 1 -229 -7 -345 -33 -25 -6 -54 -12 -65 -15 -109 -23 -322
-119 -440 -198 -112 -75 -160 -120 -743 -701 l-583 -581 33 -28 c46 -39 161
-93 238 -111 72 -17 245 -21 255 -6 3 5 11 7 19 4 7 -3 26 1 42 7 16 7 33 11
37 11 31 -7 189 92 257 162 24 25 48 46 54 46 8 0 3 -167 -8 -217 -25 -119
-84 -258 -149 -352 -45 -65 -173 -190 -238 -234 -89 -59 -229 -118 -314 -132
-106 -18 -142 -22 -212 -19 -145 4 -274 38 -398 102 -38 21 -72 39 -75 42 -3
3 -21 16 -40 29 -60 41 -187 179 -233 254 -57 95 -84 161 -112 271 -20 78 -23
110 -19 221 2 72 5 142 8 156 6 39 66 208 85 243 149 263 377 430 650 476 183
30 358 9 525 -65 31 -14 56 -21 56 -17 0 4 4 1 9 -7 7 -12 43 19 158 134 81
82 147 152 146 157 -2 4 0 7 5 5 4 -1 36 26 71 61 39 38 57 62 47 62 -9 0 -16
4 -16 9 0 10 -131 88 -210 124 -108 51 -254 99 -340 113 -14 2 -34 6 -45 9
-52 11 -318 27 -328 19z"/>
</g>
</svg>
